<?xml version="1.0"?>
<svg width="250mm" height="200mm" viewBox="0 0   2750    1500"
     xmlns="http://www.w3.org/2000/svg"
     xmlns:xlink="http://www.w3.org/1999/xlink"
     xmlns:ev="http://www.w3.org/2001/xml-events">
<g font-family="Verdana" font-size="8" >
  <line x1="   300" y1="   550" x2="   300" y2="   630" style = "stroke:silver  ;"/>
  <line x1="   300" y1="   550" x2="   300" y2="   710" style = "stroke:silver  ;"/>
  <line x1="   300" y1="   550" x2="   300" y2="   790" style = "stroke:silver  ;"/>
  <line x1="   300" y1="   550" x2="   300" y2="   870" style = "stroke:silver  ;"/>
  <line x1="   300" y1="   630" x2="   300" y2="   710" style = "stroke:silver  ;"/>
  <line x1="   300" y1="   630" x2="   300" y2="   790" style = "stroke:silver  ;"/>
  <line x1="   300" y1="   630" x2="   300" y2="   870" style = "stroke:silver  ;"/>
  <line x1="   300" y1="   710" x2="   300" y2="   790" style = "stroke:silver  ;"/>
  <line x1="   300" y1="   710" x2="   300" y2="   870" style = "stroke:silver  ;"/>
  <line x1="   300" y1="   790" x2="   300" y2="   870" style = "stroke:silver  ;"/>
  <rect x="  1950" y="    20" width="   200" height="    20" style = "fill:chartreuse; stroke: Black;"/>     1
  <text x="  1952" y="    33">CORE_ZN</text>
  <rect x="   200" y="   540" width="   200" height="    20" style = "fill:snow; stroke: Black;"/>     6
  <text x="   202" y="   553">OutdoorAir:NodeList</text>
  <rect x="   200" y="   620" width="   200" height="    20" style = "fill:snow; stroke: Black;"/>     7
  <text x="   202" y="   633">OutdoorAir:NodeList</text>
  <rect x="   200" y="   700" width="   200" height="    20" style = "fill:snow; stroke: Black;"/>     8
  <text x="   202" y="   713">OutdoorAir:NodeList</text>
  <rect x="   200" y="   780" width="   200" height="    20" style = "fill:snow; stroke: Black;"/>     9
  <text x="   202" y="   793">OutdoorAir:NodeList</text>
  <rect x="   200" y="   860" width="   200" height="    20" style = "fill:snow; stroke: Black;"/>    10
  <text x="   202" y="   873">OutdoorAir:NodeList</text>
  <rect x="   700" y="   420" width="   200" height="    20" style = "fill:wheat; stroke: Black;"/>    32
  <text x="   702" y="   433">SHWSYS1 SUPPLY EQUIPMENT BYPASS PIPE</text>
  <rect x="  1200" y="   420" width="   200" height="    20" style = "fill:wheat; stroke: Black;"/>    33
  <text x="  1202" y="   433">SHWSYS1 SUPPLY OUTLET PIPE</text>
  <rect x="  1450" y="   420" width="   200" height="    20" style = "fill:wheat; stroke: Black;"/>    34
  <text x="  1452" y="   433">SHWSYS1 DEMAND INLET PIPE</text>
  <rect x="  1950" y="   460" width="   200" height="    20" style = "fill:wheat; stroke: Black;"/>    35
  <text x="  1952" y="   473">SHWSYS1 DEMAND BYPASS PIPE</text>
  <rect x="  2450" y="   460" width="   200" height="    20" style = "fill:wheat; stroke: Black;"/>    36
  <text x="  2452" y="   473">SHWSYS1 DEMAND OUTLET PIPE</text>
  <rect x="  1950" y="   420" width="   200" height="    20" style = "fill:wheat; stroke: Black;"/>    37
  <text x="  1952" y="   433">CORE_ZN WATER EQUIPMENT</text>
  <rect x="  1700" y="   420" width="   200" height="    20" style = "fill:wheat; stroke: Black;"/>    38
  <text x="  1702" y="   433">SHWSYS1 DEMAND SPLITTER</text>
  <rect x="  2200" y="   460" width="   200" height="    20" style = "fill:wheat; stroke: Black;"/>    39
  <text x="  2202" y="   473">SHWSYS1 DEMAND MIXER</text>
  <rect x="   450" y="   420" width="   200" height="    20" style = "fill:wheat; stroke: Black;"/>    40
  <text x="   452" y="   433">SHWSYS1 SUPPLY SPLITTER</text>
  <rect x="   950" y="   420" width="   200" height="    20" style = "fill:wheat; stroke: Black;"/>    41
  <text x="   952" y="   433">SHWSYS1 SUPPLY MIXER</text>
  <rect x="  1450" y="    20" width="   200" height="    20" style = "fill:wheat; stroke: Black;"/>    42
  <text x="  1452" y="    33">PSZ-AC:1 SUPPLY AIR SPLITTER</text>
  <rect x="  1450" y="   100" width="   200" height="    20" style = "fill:wheat; stroke: Black;"/>    43
  <text x="  1452" y="   113">PSZ-AC:2 SUPPLY AIR SPLITTER</text>
  <rect x="  1450" y="   180" width="   200" height="    20" style = "fill:wheat; stroke: Black;"/>    44
  <text x="  1452" y="   193">PSZ-AC:3 SUPPLY AIR SPLITTER</text>
  <rect x="  1450" y="   260" width="   200" height="    20" style = "fill:wheat; stroke: Black;"/>    45
  <text x="  1452" y="   273">PSZ-AC:4 SUPPLY AIR SPLITTER</text>
  <rect x="  1450" y="   340" width="   200" height="    20" style = "fill:wheat; stroke: Black;"/>    46
  <text x="  1452" y="   353">PSZ-AC:5 SUPPLY AIR SPLITTER</text>
  <rect x="  1700" y="    20" width="   200" height="    20" style = "fill:snow; stroke: Black;"/>    47
  <text x="  1702" y="    33">CORE_ZN DIRECT AIR</text>
  <rect x="  1700" y="   100" width="   200" height="    20" style = "fill:snow; stroke: Black;"/>    48
  <text x="  1702" y="   113">PERIMETER_ZN_1 DIRECT AIR</text>
  <rect x="  1700" y="   180" width="   200" height="    20" style = "fill:snow; stroke: Black;"/>    49
  <text x="  1702" y="   193">PERIMETER_ZN_2 DIRECT AIR</text>
  <rect x="  1700" y="   260" width="   200" height="    20" style = "fill:snow; stroke: Black;"/>    50
  <text x="  1702" y="   273">PERIMETER_ZN_3 DIRECT AIR</text>
  <rect x="  1700" y="   340" width="   200" height="    20" style = "fill:snow; stroke: Black;"/>    51
  <text x="  1702" y="   353">PERIMETER_ZN_4 DIRECT AIR</text>
  <rect x="  2200" y="    20" width="   200" height="    20" style = "fill:wheat; stroke: Black;"/>    52
  <text x="  2202" y="    33">PSZ-AC:1 RETURN AIR MIXER</text>
  <rect x="  2200" y="   100" width="   200" height="    20" style = "fill:wheat; stroke: Black;"/>    53
  <text x="  2202" y="   113">PSZ-AC:2 RETURN AIR MIXER</text>
  <rect x="  2200" y="   180" width="   200" height="    20" style = "fill:wheat; stroke: Black;"/>    54
  <text x="  2202" y="   193">PSZ-AC:3 RETURN AIR MIXER</text>
  <rect x="  2200" y="   260" width="   200" height="    20" style = "fill:wheat; stroke: Black;"/>    55
  <text x="  2202" y="   273">PSZ-AC:4 RETURN AIR MIXER</text>
  <rect x="  2200" y="   340" width="   200" height="    20" style = "fill:wheat; stroke: Black;"/>    56
  <text x="  2202" y="   353">PSZ-AC:5 RETURN AIR MIXER</text>
  <rect x="   200" y="    20" width="   200" height="    20" style = "fill:lawngreen; stroke: Black;"/>    57
  <text x="   202" y="    33">PSZ-AC:1_OAMIXING BOX</text>
  <rect x="   200" y="   100" width="   200" height="    20" style = "fill:lawngreen; stroke: Black;"/>    58
  <text x="   202" y="   113">PSZ-AC:2_OAMIXING BOX</text>
  <rect x="   200" y="   180" width="   200" height="    20" style = "fill:lawngreen; stroke: Black;"/>    59
  <text x="   202" y="   193">PSZ-AC:3_OAMIXING BOX</text>
  <rect x="   200" y="   260" width="   200" height="    20" style = "fill:lawngreen; stroke: Black;"/>    60
  <text x="   202" y="   273">PSZ-AC:4_OAMIXING BOX</text>
  <rect x="   200" y="   340" width="   200" height="    20" style = "fill:lawngreen; stroke: Black;"/>    61
  <text x="   202" y="   353">PSZ-AC:5_OAMIXING BOX</text>
  <rect x="   450" y="    20" width="   200" height="    20" style = "fill:silver; stroke: Black;"/>    67
  <text x="   452" y="    33">PSZ-AC:1 FAN</text>
  <rect x="   450" y="   100" width="   200" height="    20" style = "fill:silver; stroke: Black;"/>    68
  <text x="   452" y="   113">PSZ-AC:2 FAN</text>
  <rect x="   450" y="   180" width="   200" height="    20" style = "fill:silver; stroke: Black;"/>    69
  <text x="   452" y="   193">PSZ-AC:3 FAN</text>
  <rect x="   450" y="   260" width="   200" height="    20" style = "fill:silver; stroke: Black;"/>    70
  <text x="   452" y="   273">PSZ-AC:4 FAN</text>
  <rect x="   450" y="   340" width="   200" height="    20" style = "fill:silver; stroke: Black;"/>    71
  <text x="   452" y="   353">PSZ-AC:5 FAN</text>
  <rect x="   700" y="    20" width="   200" height="    20" style = "fill:skyblue; stroke: Black;"/>    72
  <text x="   702" y="    33">PSZ-AC:1 HEAT PUMP DX COOLING COIL</text>
  <rect x="   700" y="   100" width="   200" height="    20" style = "fill:skyblue; stroke: Black;"/>    73
  <text x="   702" y="   113">PSZ-AC:2 HEAT PUMP DX COOLING COIL</text>
  <rect x="   700" y="   180" width="   200" height="    20" style = "fill:skyblue; stroke: Black;"/>    74
  <text x="   702" y="   193">PSZ-AC:3 HEAT PUMP DX COOLING COIL</text>
  <rect x="   700" y="   260" width="   200" height="    20" style = "fill:skyblue; stroke: Black;"/>    75
  <text x="   702" y="   273">PSZ-AC:4 HEAT PUMP DX COOLING COIL</text>
  <rect x="   700" y="   340" width="   200" height="    20" style = "fill:skyblue; stroke: Black;"/>    76
  <text x="   702" y="   353">PSZ-AC:5 HEAT PUMP DX COOLING COIL</text>
  <rect x="   950" y="    20" width="   200" height="    20" style = "fill:salmon; stroke: Black;"/>    77
  <text x="   952" y="    33">PSZ-AC:1 HEAT PUMP DX HEATING COIL</text>
  <rect x="   950" y="   100" width="   200" height="    20" style = "fill:salmon; stroke: Black;"/>    78
  <text x="   952" y="   113">PSZ-AC:2 HEAT PUMP DX HEATING COIL</text>
  <rect x="   950" y="   180" width="   200" height="    20" style = "fill:salmon; stroke: Black;"/>    79
  <text x="   952" y="   193">PSZ-AC:3 HEAT PUMP DX HEATING COIL</text>
  <rect x="   950" y="   260" width="   200" height="    20" style = "fill:salmon; stroke: Black;"/>    80
  <text x="   952" y="   273">PSZ-AC:4 HEAT PUMP DX HEATING COIL</text>
  <rect x="   950" y="   340" width="   200" height="    20" style = "fill:salmon; stroke: Black;"/>    81
  <text x="   952" y="   353">PSZ-AC:5 HEAT PUMP DX HEATING COIL</text>
  <rect x="  1200" y="    20" width="   200" height="    20" style = "fill:salmon; stroke: Black;"/>    82
  <text  x="  1202" y="    28">PSZ-AC:1 HEAT PUMP DX SUPP HEATING
  <tspan x="  1202" y="    36">COIL</tspan></text>
  <rect x="  1200" y="   100" width="   200" height="    20" style = "fill:salmon; stroke: Black;"/>    83
  <text  x="  1202" y="   108">PSZ-AC:2 HEAT PUMP DX SUPP HEATING
  <tspan x="  1202" y="   116">COIL</tspan></text>
  <rect x="  1200" y="   180" width="   200" height="    20" style = "fill:salmon; stroke: Black;"/>    84
  <text  x="  1202" y="   188">PSZ-AC:3 HEAT PUMP DX SUPP HEATING
  <tspan x="  1202" y="   196">COIL</tspan></text>
  <rect x="  1200" y="   260" width="   200" height="    20" style = "fill:salmon; stroke: Black;"/>    85
  <text  x="  1202" y="   268">PSZ-AC:4 HEAT PUMP DX SUPP HEATING
  <tspan x="  1202" y="   276">COIL</tspan></text>
  <rect x="  1200" y="   340" width="   200" height="    20" style = "fill:salmon; stroke: Black;"/>    86
  <text  x="  1202" y="   348">PSZ-AC:5 HEAT PUMP DX SUPP HEATING
  <tspan x="  1202" y="   356">COIL</tspan></text>
  <rect x="   200" y="   420" width="   200" height="    20" style = "fill:springgreen; stroke: Black;"/>    87
  <text x="   202" y="   433">SHWSYS1 PUMP</text>
  <rect x="  1950" y="   100" width="   200" height="    20" style = "fill:chartreuse; stroke: Black;"/>    88
  <text x="  1952" y="   113">PERIMETER_ZN_1</text>
  <rect x="  1950" y="   180" width="   200" height="    20" style = "fill:chartreuse; stroke: Black;"/>    89
  <text x="  1952" y="   193">PERIMETER_ZN_2</text>
  <rect x="  1950" y="   260" width="   200" height="    20" style = "fill:chartreuse; stroke: Black;"/>    90
  <text x="  1952" y="   273">PERIMETER_ZN_3</text>
  <rect x="  1950" y="   340" width="   200" height="    20" style = "fill:chartreuse; stroke: Black;"/>    91
  <text x="  1952" y="   353">PERIMETER_ZN_4</text>
  <line x1="   900" y1="   430" x2="   950" y2="   430" style = "stroke: Black;"/>
  <line x1="  1400" y1="   430" x2="  1450" y2="   430" style = "stroke: Black;"/>
  <line x1="  1650" y1="   430" x2="  1700" y2="   430" style = "stroke: Black;"/>
  <line x1="  2150" y1="   470" x2="  2200" y2="   470" style = "stroke: Black;"/>
  <line x1="  2150" y1="   430" x2="  2200" y2="   470" style = "stroke: Black;"/>
  <line x1="  1900" y1="   430" x2="  1950" y2="   430" style = "stroke: Black;"/>
  <line x1="  1900" y1="   430" x2="  1950" y2="   470" style = "stroke: Black;"/>
  <line x1="  2400" y1="   470" x2="  2450" y2="   470" style = "stroke: Black;"/>
  <line x1="   650" y1="   430" x2="   700" y2="   430" style = "stroke: Black;"/>
  <line x1="  1150" y1="   430" x2="  1200" y2="   430" style = "stroke: Black;"/>
  <line x1="  1650" y1="    30" x2="  1700" y2="    30" style = "stroke: Black;"/>
  <line x1="  1650" y1="   110" x2="  1700" y2="   110" style = "stroke: Black;"/>
  <line x1="  1650" y1="   190" x2="  1700" y2="   190" style = "stroke: Black;"/>
  <line x1="  1650" y1="   270" x2="  1700" y2="   270" style = "stroke: Black;"/>
  <line x1="  1650" y1="   350" x2="  1700" y2="   350" style = "stroke: Black;"/>
  <line x1="  1900" y1="    30" x2="  1950" y2="    30" style = "stroke: Black;"/>
  <line x1="  1900" y1="   110" x2="  1950" y2="   110" style = "stroke: Black;"/>
  <line x1="  1900" y1="   190" x2="  1950" y2="   190" style = "stroke: Black;"/>
  <line x1="  1900" y1="   270" x2="  1950" y2="   270" style = "stroke: Black;"/>
  <line x1="  1900" y1="   350" x2="  1950" y2="   350" style = "stroke: Black;"/>
  <line x1="   400" y1="    30" x2="   450" y2="    30" style = "stroke: Black;"/>
  <line x1="   400" y1="   110" x2="   450" y2="   110" style = "stroke: Black;"/>
  <line x1="   400" y1="   190" x2="   450" y2="   190" style = "stroke: Black;"/>
  <line x1="   400" y1="   270" x2="   450" y2="   270" style = "stroke: Black;"/>
  <line x1="   400" y1="   350" x2="   450" y2="   350" style = "stroke: Black;"/>
  <line x1="   650" y1="    30" x2="   700" y2="    30" style = "stroke: Black;"/>
  <line x1="   650" y1="   110" x2="   700" y2="   110" style = "stroke: Black;"/>
  <line x1="   650" y1="   190" x2="   700" y2="   190" style = "stroke: Black;"/>
  <line x1="   650" y1="   270" x2="   700" y2="   270" style = "stroke: Black;"/>
  <line x1="   650" y1="   350" x2="   700" y2="   350" style = "stroke: Black;"/>
  <line x1="   900" y1="    30" x2="   950" y2="    30" style = "stroke: Black;"/>
  <line x1="   900" y1="   110" x2="   950" y2="   110" style = "stroke: Black;"/>
  <line x1="   900" y1="   190" x2="   950" y2="   190" style = "stroke: Black;"/>
  <line x1="   900" y1="   270" x2="   950" y2="   270" style = "stroke: Black;"/>
  <line x1="   900" y1="   350" x2="   950" y2="   350" style = "stroke: Black;"/>
  <line x1="  1150" y1="    30" x2="  1200" y2="    30" style = "stroke: Black;"/>
  <line x1="  1150" y1="   110" x2="  1200" y2="   110" style = "stroke: Black;"/>
  <line x1="  1150" y1="   190" x2="  1200" y2="   190" style = "stroke: Black;"/>
  <line x1="  1150" y1="   270" x2="  1200" y2="   270" style = "stroke: Black;"/>
  <line x1="  1150" y1="   350" x2="  1200" y2="   350" style = "stroke: Black;"/>
  <line x1="  1400" y1="    30" x2="  1450" y2="    30" style = "stroke: Black;"/>
  <line x1="  1400" y1="   110" x2="  1450" y2="   110" style = "stroke: Black;"/>
  <line x1="  1400" y1="   190" x2="  1450" y2="   190" style = "stroke: Black;"/>
  <line x1="  1400" y1="   270" x2="  1450" y2="   270" style = "stroke: Black;"/>
  <line x1="  1400" y1="   350" x2="  1450" y2="   350" style = "stroke: Black;"/>
  <line x1="   400" y1="   430" x2="   450" y2="   430" style = "stroke: Black;"/>
  <line x1="  2150" y1="    30" x2="  2200" y2="    30" style = "stroke: Black;"/>
  <line x1="  2150" y1="   110" x2="  2200" y2="   110" style = "stroke: Black;"/>
  <line x1="  2150" y1="   190" x2="  2200" y2="   190" style = "stroke: Black;"/>
  <line x1="  2150" y1="   270" x2="  2200" y2="   270" style = "stroke: Black;"/>
  <line x1="  2150" y1="   350" x2="  2200" y2="   350" style = "stroke: Black;"/>
  <line x1="   200" y1="    30" x2="   175" y2="    30" style = "stroke: Black;"/>
  <line x1="   175" y1="    30" x2="   175" y2="     0" style = "stroke: Black;"/>
  <line x1="   175" y1="     0" x2="  2425" y2="     0" style = "stroke: Black;"/>
  <line x1="  2425" y1="     0" x2="  2425" y2="    30" style = "stroke: Black;"/>
  <line x1="  2425" y1="    30" x2="  2400" y2="    30" style = "stroke: Black;"/>
  <line x1="   200" y1="   110" x2="   175" y2="   110" style = "stroke: Black;"/>
  <line x1="   175" y1="   110" x2="   175" y2="    80" style = "stroke: Black;"/>
  <line x1="   175" y1="    80" x2="  2425" y2="    80" style = "stroke: Black;"/>
  <line x1="  2425" y1="    80" x2="  2425" y2="   110" style = "stroke: Black;"/>
  <line x1="  2425" y1="   110" x2="  2400" y2="   110" style = "stroke: Black;"/>
  <line x1="   200" y1="   190" x2="   175" y2="   190" style = "stroke: Black;"/>
  <line x1="   175" y1="   190" x2="   175" y2="   160" style = "stroke: Black;"/>
  <line x1="   175" y1="   160" x2="  2425" y2="   160" style = "stroke: Black;"/>
  <line x1="  2425" y1="   160" x2="  2425" y2="   190" style = "stroke: Black;"/>
  <line x1="  2425" y1="   190" x2="  2400" y2="   190" style = "stroke: Black;"/>
  <line x1="   200" y1="   270" x2="   175" y2="   270" style = "stroke: Black;"/>
  <line x1="   175" y1="   270" x2="   175" y2="   240" style = "stroke: Black;"/>
  <line x1="   175" y1="   240" x2="  2425" y2="   240" style = "stroke: Black;"/>
  <line x1="  2425" y1="   240" x2="  2425" y2="   270" style = "stroke: Black;"/>
  <line x1="  2425" y1="   270" x2="  2400" y2="   270" style = "stroke: Black;"/>
  <line x1="   200" y1="   350" x2="   175" y2="   350" style = "stroke: Black;"/>
  <line x1="   175" y1="   350" x2="   175" y2="   320" style = "stroke: Black;"/>
  <line x1="   175" y1="   320" x2="  2425" y2="   320" style = "stroke: Black;"/>
  <line x1="  2425" y1="   320" x2="  2425" y2="   350" style = "stroke: Black;"/>
  <line x1="  2425" y1="   350" x2="  2400" y2="   350" style = "stroke: Black;"/>
  <line x1="   200" y1="   430" x2="   175" y2="   430" style = "stroke: Black;"/>
  <line x1="   175" y1="   430" x2="   175" y2="   400" style = "stroke: Black;"/>
  <line x1="   175" y1="   400" x2="  2675" y2="   400" style = "stroke: Black;"/>
  <line x1="  2675" y1="   400" x2="  2675" y2="   470" style = "stroke: Black;"/>
  <line x1="  2675" y1="   470" x2="  2650" y2="   470" style = "stroke: Black;"/>
  <text x="   200" y="   920">Unused Non-Parent Objects:</text>
  <text x="   220" y="   940">OutdoorAir:Node</text>
  <text x="   220" y="   960">OutdoorAir:Node</text>
  <text x="   220" y="   980">OutdoorAir:Node</text>
  <text x="   220" y="  1000">OutdoorAir:Node</text>
  <text x="   220" y="  1020">OutdoorAir:Node</text>
  <text x="   220" y="  1040">SHWSYS1 LOOP SETPOINT MANAGER</text>
  <text x="   220" y="  1060">SUPAIRTEMP MNGRCORE_ZN - HTG</text>
  <text x="   220" y="  1080">SUPAIRTEMP MNGRPERIMETER_ZN_1 - HTG</text>
  <text x="   220" y="  1100">SUPAIRTEMP MNGRPERIMETER_ZN_2 - HTG</text>
  <text x="   220" y="  1120">SUPAIRTEMP MNGRPERIMETER_ZN_3 - HTG</text>
  <text x="   220" y="  1140">SUPAIRTEMP MNGRPERIMETER_ZN_4 - HTG</text>
  <text x="   220" y="  1160">SUPAIRTEMP MNGRCORE_ZN - CLG</text>
  <text x="   220" y="  1180">SUPAIRTEMP MNGRPERIMETER_ZN_1 - CLG</text>
  <text x="   220" y="  1200">SUPAIRTEMP MNGRPERIMETER_ZN_2 - CLG</text>
  <text x="   220" y="  1220">SUPAIRTEMP MNGRPERIMETER_ZN_3 - CLG</text>
  <text x="   220" y="  1240">SUPAIRTEMP MNGRPERIMETER_ZN_4 - CLG</text>
  <text x="   220" y="  1260">PSZ-AC:1_OAMIXED AIR TEMP MANAGER</text>
  <text x="   220" y="  1280">PSZ-AC:2_OAMIXED AIR TEMP MANAGER</text>
  <text x="   220" y="  1300">PSZ-AC:3_OAMIXED AIR TEMP MANAGER</text>
  <text x="   220" y="  1320">PSZ-AC:4_OAMIXED AIR TEMP MANAGER</text>
  <text x="   220" y="  1340">PSZ-AC:5_OAMIXED AIR TEMP MANAGER</text>
  <text x="   220" y="  1360">PSZ-AC:1_OA_CONTROLLER</text>
  <text x="   220" y="  1380">PSZ-AC:2_OA_CONTROLLER</text>
  <text x="   220" y="  1400">PSZ-AC:3_OA_CONTROLLER</text>
  <text x="   220" y="  1420">PSZ-AC:4_OA_CONTROLLER</text>
  <text x="   220" y="  1440">PSZ-AC:5_OA_CONTROLLER</text>
  <text x="   200" y="  1480">
The following are not supported: objects related to controls or ZoneHVAC:IdealLoadsAirSystem</text>
</g>
</svg>
